<svg width="19" height="18" viewBox="0 0 19 18" fill="none" xmlns="http://www.w3.org/2000/svg">
<path d="M5.57 3.62961L4.22 2.28711L3.1625 3.34461L4.505 4.68711L5.57 3.62961ZM1.25 7.87461H3.5V9.37461H1.25V7.87461ZM8.75 0.412109H10.25V2.62461H8.75V0.412109ZM14.78 2.28336L15.836 3.33861L14.4935 4.68111L13.4382 3.62511L14.78 2.28336ZM13.43 13.6196L14.7725 14.9696L15.83 13.9121L14.48 12.5696L13.43 13.6196ZM15.5 7.87461H17.75V9.37461H15.5V7.87461ZM9.5 4.12461C7.0175 4.12461 5 6.14211 5 8.62461C5 11.1071 7.0175 13.1246 9.5 13.1246C11.9825 13.1246 14 11.1071 14 8.62461C14 6.14211 11.9825 4.12461 9.5 4.12461ZM9.5 11.6246C7.8425 11.6246 6.5 10.2821 6.5 8.62461C6.5 6.96711 7.8425 5.62461 9.5 5.62461C11.1575 5.62461 12.5 6.96711 12.5 8.62461C12.5 10.2821 11.1575 11.6246 9.5 11.6246ZM8.75 14.6246H10.25V16.8371H8.75V14.6246ZM3.1625 13.9046L4.22 14.9621L5.5625 13.6121L4.505 12.5546L3.1625 13.9046Z" fill="#23272E"/>
</svg>
